<svg xmlns="http://www.w3.org/2000/svg" viewBox="0 0 126.8 38.74" width="127px" height="40px"><defs><style>.cls-1{fill:#fff;}.cls-2{fill:#0bb4ce;}.cls-3{isolation:isolate;}</style></defs><title>consultingpress-logo-light-blue</title><g id="consulting"><path class="cls-1" d="M392.34,98.51a6.66,6.66,0,0,1,0-8.73,5.7,5.7,0,0,1,4.21-1.63,6.11,6.11,0,0,1,3.63,1.06,5,5,0,0,1,2,3h-3.89a1.71,1.71,0,0,0-1.65-1,1.92,1.92,0,0,0-1.7.81,4.36,4.36,0,0,0,0,4.26,1.85,1.85,0,0,0,1.63.81,2,2,0,0,0,1.05-.23,1.94,1.94,0,0,0,.67-.82h3.89a5.21,5.21,0,0,1-2,3,5.92,5.92,0,0,1-3.61,1.11A5.68,5.68,0,0,1,392.34,98.51Z" transform="translate(-390 -83.35)"/><path class="cls-1" d="M406.16,98.49a5.7,5.7,0,0,1-1.77-4.37,5.62,5.62,0,0,1,1.76-4.34,6.66,6.66,0,0,1,8.73,0,5.63,5.63,0,0,1,1.75,4.34,5.75,5.75,0,0,1-1.74,4.37,6.06,6.06,0,0,1-4.35,1.66A6.17,6.17,0,0,1,406.16,98.49Zm6.1-2.16a3.07,3.07,0,0,0,.71-2.18,3,3,0,0,0-.73-2.17,2.37,2.37,0,0,0-1.74-.75,2.33,2.33,0,0,0-1.73.75,3.6,3.6,0,0,0,0,4.36,2.38,2.38,0,0,0,1.75.76A2.28,2.28,0,0,0,412.26,96.33Z" transform="translate(-390 -83.35)"/><path class="cls-1" d="M423.58,88.28V90a3.84,3.84,0,0,1,3.55-1.85,4.25,4.25,0,0,1,3.27,1.34,5.16,5.16,0,0,1,1.25,3.65V100h-3.57V93.64a2.42,2.42,0,0,0-.6-1.75,2.5,2.5,0,0,0-3.3,0,2.42,2.42,0,0,0-.6,1.75V100H420V88.28Z" transform="translate(-390 -83.35)"/><path class="cls-1" d="M434.94,91.81a3.2,3.2,0,0,1,1.32-2.6,5.61,5.61,0,0,1,3.58-1.05,6,6,0,0,1,3.64,1A3.54,3.54,0,0,1,445,92h-3.67a1,1,0,0,0-.42-.83,2.08,2.08,0,0,0-1.07-.22q-1.41,0-1.41.86t1.72,1.07a14,14,0,0,1,3.17.9A2.75,2.75,0,0,1,445,96.43a3.19,3.19,0,0,1-1.41,2.68,5.81,5.81,0,0,1-3.55,1,6.18,6.18,0,0,1-3.57-1,3.58,3.58,0,0,1-1.55-2.89h3.67q.15,1.07,1.51,1.07a1.74,1.74,0,0,0,1-.29.89.89,0,0,0,.41-.76q0-.46-.68-.74a9.31,9.31,0,0,0-1.65-.46q-1-.19-1.94-.47a3.71,3.71,0,0,1-1.66-1A2.53,2.53,0,0,1,434.94,91.81Z" transform="translate(-390 -83.35)"/><path class="cls-1" d="M456.4,88.28H460V100H456.4V98.28a3.83,3.83,0,0,1-3.55,1.85,4.25,4.25,0,0,1-3.27-1.34,5.15,5.15,0,0,1-1.25-3.65V88.28h3.57v6.36a2.42,2.42,0,0,0,.6,1.75,2.5,2.5,0,0,0,3.3,0,2.42,2.42,0,0,0,.6-1.75Z" transform="translate(-390 -83.35)"/><path class="cls-1" d="M464.19,100V84.46h3.59V100Z" transform="translate(-390 -83.35)"/><path class="cls-1" d="M477,97h1.28v3h-1.83a4.76,4.76,0,0,1-3.06-.87,3.64,3.64,0,0,1-1.08-3V91.26h-1.09v-3h1.09V85.43h3.59v2.86h2.35v3h-2.35v4.87Q475.87,97,477,97Z" transform="translate(-390 -83.35)"/><path class="cls-1" d="M485,87a2.16,2.16,0,1,1,.61-1.5A2,2,0,0,1,485,87Zm-3.28,13V88.28h3.59V100Z" transform="translate(-390 -83.35)"/><path class="cls-1" d="M493.13,88.28V90a3.83,3.83,0,0,1,3.55-1.85,4.25,4.25,0,0,1,3.27,1.34,5.16,5.16,0,0,1,1.25,3.65V100h-3.57V93.64a2.42,2.42,0,0,0-.6-1.75,2.5,2.5,0,0,0-3.3,0,2.42,2.42,0,0,0-.6,1.75V100h-3.59V88.28Z" transform="translate(-390 -83.35)"/><path class="cls-1" d="M506,98.47a6.75,6.75,0,0,1,0-8.62,5,5,0,0,1,3.79-1.69,4,4,0,0,1,3.43,1.66V88.28h3.59V99.94a6.24,6.24,0,0,1-1.34,4.1,4.34,4.34,0,0,1-1.84,1.3,8.57,8.57,0,0,1-7-.63,4.31,4.31,0,0,1-1.79-3.34h3.53q.5,1.32,2.52,1.32a2.2,2.2,0,0,0,1.64-.66,2.89,2.89,0,0,0,.65-2.09V98.3a4.06,4.06,0,0,1-3.49,1.85A4.91,4.91,0,0,1,506,98.47Zm6.45-2.18a2.85,2.85,0,0,0,.78-2.14,2.82,2.82,0,0,0-.78-2.13,2.5,2.5,0,0,0-3.57,0,2.85,2.85,0,0,0-.78,2.14,2.81,2.81,0,0,0,.78,2.13,2.5,2.5,0,0,0,3.57,0Z" transform="translate(-390 -83.35)"/></g><g id="PRESS"><path class="cls-2" d="M438.32,116.16a2.66,2.66,0,0,1-.61,1.64,2.28,2.28,0,0,1-1,.67,4.05,4.05,0,0,1-1.52.26H434V122H431.9v-8.42h3.32a3.23,3.23,0,0,1,2.28.76A2.4,2.4,0,0,1,438.32,116.16Zm-4.37,1h1.27a1,1,0,0,0,.74-.28,1,1,0,0,0,.27-.73,1,1,0,0,0-.28-.74,1,1,0,0,0-.73-.29H434Z" transform="translate(-390 -83.35)"/><path class="cls-2" d="M453.61,118.72V122h-2.05v-8.42h3.32a3.23,3.23,0,0,1,2.28.76,2.4,2.4,0,0,1,.82,1.82,2.62,2.62,0,0,1-.44,1.43,2.42,2.42,0,0,1-1.45,1l2.06,3.43h-2.4l-1.9-3.28Zm0-3.59v2h1.27a1,1,0,0,0,.74-.28,1,1,0,0,0,.27-.73,1,1,0,0,0-.28-.74,1,1,0,0,0-.73-.29Z" transform="translate(-390 -83.35)"/><path class="cls-2" d="M476.67,113.55v1.56h-3v1.81h2.69v1.56h-2.69v2h3V122h-5.1v-8.45Z" transform="translate(-390 -83.35)"/><path class="cls-2" d="M493.29,115.08a1,1,0,0,0-.63.2.72.72,0,0,0-.25.59.85.85,0,0,0,.23.62,1.49,1.49,0,0,0,.59.36q.37.13.82.24a9.28,9.28,0,0,1,.89.28,3.94,3.94,0,0,1,.81.4,1.76,1.76,0,0,1,.59.68,2.25,2.25,0,0,1,.23,1.05,2.35,2.35,0,0,1-.87,1.83,3.35,3.35,0,0,1-2.29.76,3.6,3.6,0,0,1-2.29-.68,2.33,2.33,0,0,1-.87-1.94h2.18a1,1,0,0,0,1,1,1,1,0,0,0,.7-.23.77.77,0,0,0,.25-.59.8.8,0,0,0-.23-.59,1.59,1.59,0,0,0-.59-.36q-.37-.13-.82-.25a8.23,8.23,0,0,1-.89-.28,4.38,4.38,0,0,1-.81-.4,1.71,1.71,0,0,1-.59-.67,2.22,2.22,0,0,1-.23-1,2.3,2.3,0,0,1,.88-1.88,3.44,3.44,0,0,1,2.24-.71,3.63,3.63,0,0,1,2.2.62,2.35,2.35,0,0,1,.88,1.95h-2.23a1.13,1.13,0,0,0-.29-.7A.85.85,0,0,0,493.29,115.08Z" transform="translate(-390 -83.35)"/><path class="cls-2" d="M513.06,115.08a1,1,0,0,0-.63.2.72.72,0,0,0-.25.59.85.85,0,0,0,.23.62,1.48,1.48,0,0,0,.59.36q.37.13.82.24a9.23,9.23,0,0,1,.89.28,3.94,3.94,0,0,1,.81.4,1.76,1.76,0,0,1,.59.68,2.25,2.25,0,0,1,.23,1.05,2.35,2.35,0,0,1-.87,1.83,3.35,3.35,0,0,1-2.29.76,3.6,3.6,0,0,1-2.29-.68,2.33,2.33,0,0,1-.87-1.94h2.18a1,1,0,0,0,1,1,1,1,0,0,0,.7-.23.77.77,0,0,0,.25-.59A.8.8,0,0,0,514,119a1.59,1.59,0,0,0-.59-.36q-.37-.13-.82-.25a8.23,8.23,0,0,1-.89-.28,4.36,4.36,0,0,1-.81-.4,1.71,1.71,0,0,1-.59-.67,2.22,2.22,0,0,1-.23-1,2.3,2.3,0,0,1,.88-1.88,3.45,3.45,0,0,1,2.24-.71,3.63,3.63,0,0,1,2.2.62,2.34,2.34,0,0,1,.88,1.95H514a1.13,1.13,0,0,0-.29-.7A.85.85,0,0,0,513.06,115.08Z" transform="translate(-390 -83.35)"/></g><g id="border" class="cls-3"><g id="border-2" data-name="border"><rect class="cls-2" y="33.65" width="29" height="1"/></g></g></svg>