<?xml version="1.0" encoding="utf-8"?>
<!-- Generator: Adobe Illustrator 20.0.0, SVG Export Plug-In . SVG Version: 6.00 Build 0)  -->
<svg version="1.1" id="Layer_1" xmlns="http://www.w3.org/2000/svg" xmlns:xlink="http://www.w3.org/1999/xlink" x="0px" y="0px"
	 viewBox="0 0 126.8 38.7" style="enable-background:new 0 0 126.8 38.7;" xml:space="preserve" width="127px" height="40px">
<style type="text/css">
	.st0{fill:#FFFFFF;}
	.st1{fill:#6EC25B;}
</style>
<title>consultingpress-logo-green</title>
<g id="Layer_2">
	<g id="consulting">
		<path class="st0" d="M2.3,15.2c-1.1-1.2-1.7-2.8-1.6-4.4C0.6,9.2,1.2,7.6,2.3,6.4C3.5,5.3,5,4.8,6.6,4.8c1.3,0,2.6,0.3,3.6,1.1
			c1,0.7,1.7,1.8,2,3H8.3c-0.3-0.6-0.9-1-1.7-1C6,7.8,5.3,8.1,4.9,8.7c-0.4,0.6-0.6,1.4-0.6,2.1c0,0.8,0.2,1.5,0.6,2.1
			c0.4,0.5,1,0.8,1.6,0.8c0.4,0,0.7-0.1,1-0.3c0.3-0.2,0.5-0.5,0.7-0.8h3.9c-0.3,1.2-1,2.3-2,3c-1,0.8-2.3,1.2-3.6,1.1
			C5,16.9,3.5,16.3,2.3,15.2z"/>
		<path class="st0" d="M16.2,15.1c-1.2-1.1-1.8-2.7-1.8-4.4c-0.1-1.6,0.6-3.2,1.8-4.3c1.2-1.1,2.8-1.7,4.4-1.6
			c1.6,0,3.2,0.5,4.4,1.6c1.2,1.1,1.8,2.7,1.8,4.3c0.1,1.6-0.6,3.2-1.7,4.4c-1.2,1.1-2.7,1.7-4.4,1.7C18.9,16.8,17.3,16.2,16.2,15.1
			z M22.3,13c0.5-0.6,0.8-1.4,0.7-2.2c0.1-0.8-0.2-1.6-0.7-2.2c-0.5-0.5-1.1-0.8-1.7-0.8c-0.7,0-1.3,0.3-1.7,0.8
			C18.3,9.2,18,10,18,10.8c-0.1,0.8,0.2,1.6,0.8,2.2c0.5,0.5,1.1,0.8,1.8,0.8C21.2,13.8,21.8,13.5,22.3,13z"/>
		<path class="st0" d="M33.6,4.9v1.7c0.7-1.2,2.1-1.9,3.5-1.8c1.2,0,2.4,0.4,3.3,1.3c0.9,1,1.3,2.3,1.3,3.7v6.8h-3.6v-6.4
			c0-0.6-0.2-1.3-0.6-1.8c-0.9-0.8-2.4-0.8-3.3,0c-0.4,0.5-0.6,1.1-0.6,1.8v6.4H30V4.9H33.6z"/>
		<path class="st0" d="M44.9,8.5c0-1,0.5-2,1.3-2.6c1-0.7,2.3-1.1,3.6-1c1.3-0.1,2.6,0.3,3.6,1C54.4,6.5,55,7.5,55,8.6h-3.7
			c0-0.3-0.2-0.6-0.4-0.8c-0.3-0.2-0.7-0.2-1.1-0.2c-0.9,0-1.4,0.3-1.4,0.9s0.6,0.9,1.7,1.1c1.1,0.2,2.2,0.5,3.2,0.9
			c1.1,0.4,1.8,1.5,1.7,2.7c0,1.1-0.5,2.1-1.4,2.7c-1,0.7-2.3,1.1-3.5,1c-1.3,0-2.5-0.3-3.6-1c-1-0.7-1.5-1.7-1.5-2.9h3.7
			c0.1,0.8,0.6,1.1,1.5,1.1c0.4,0,0.7-0.1,1-0.3c0.3-0.2,0.4-0.5,0.4-0.8c0-0.3-0.2-0.6-0.7-0.7c-0.5-0.2-1.1-0.4-1.7-0.5
			c-0.7-0.1-1.3-0.3-1.9-0.5c-0.6-0.2-1.2-0.5-1.7-1C45.1,9.8,44.9,9.1,44.9,8.5z"/>
		<path class="st0" d="M66.4,4.9H70v11.7h-3.6v-1.7c-0.7,1.2-2.1,2-3.5,1.9c-1.2,0-2.4-0.4-3.3-1.3c-0.9-1-1.3-2.3-1.3-3.6V4.9h3.6
			v6.4c0,0.6,0.2,1.3,0.6,1.8c0.9,0.8,2.4,0.8,3.3,0c0.4-0.5,0.6-1.1,0.6-1.8V4.9z"/>
		<path class="st0" d="M74.2,16.6V1.1h3.6v15.5H74.2z"/>
		<path class="st0" d="M87,13.6h1.3v3h-1.9c-1.1,0.1-2.2-0.2-3.1-0.9c-0.8-0.8-1.2-1.9-1.1-3V7.9h-1.1v-3h1.1V2.1h3.6v2.9h2.3v3
			h-2.3v4.9C85.9,13.3,86.2,13.6,87,13.6z"/>
		<path class="st0" d="M95,3.6c-0.8,0.8-2.2,0.8-3,0c-0.4-0.4-0.6-0.9-0.6-1.5c0-0.6,0.2-1.1,0.6-1.5c0.8-0.8,2.2-0.8,3,0
			c0.4,0.4,0.6,0.9,0.6,1.5C95.6,2.7,95.4,3.2,95,3.6z M91.7,16.6V4.9h3.6v11.7L91.7,16.6z"/>
		<path class="st0" d="M103.1,4.9v1.7c0.7-1.2,2.1-2,3.6-1.8c1.2,0,2.4,0.4,3.3,1.3c0.9,1,1.3,2.3,1.3,3.7v6.8h-3.6v-6.4
			c0-0.6-0.2-1.3-0.6-1.8c-0.9-0.8-2.4-0.8-3.3,0c-0.4,0.5-0.6,1.1-0.6,1.8v6.4h-3.6V4.9H103.1z"/>
		<path class="st0" d="M116,15.1c-1.1-1.2-1.6-2.7-1.6-4.3c-0.1-1.6,0.5-3.1,1.6-4.3c1-1.1,2.3-1.7,3.8-1.7c1.4-0.1,2.6,0.6,3.4,1.7
			V4.9h3.6v11.6c0.1,1.5-0.4,2.9-1.3,4.1c-0.5,0.6-1.1,1-1.8,1.3c-2.3,0.8-4.9,0.6-7-0.6c-1.1-0.8-1.7-2-1.8-3.4h3.5
			c0.3,0.9,1.2,1.3,2.5,1.3c0.6,0,1.2-0.2,1.6-0.7c0.5-0.6,0.7-1.3,0.7-2.1V15c-0.8,1.2-2.1,1.9-3.5,1.9
			C118.3,16.8,116.9,16.2,116,15.1z M122.4,12.9c0.5-0.6,0.8-1.3,0.8-2.1c0-0.8-0.2-1.6-0.8-2.1c-1-1-2.5-1-3.5,0c0,0,0,0,0,0
			c-0.5,0.6-0.8,1.3-0.8,2.1c-0.1,0.8,0.2,1.6,0.8,2.1C119.8,13.9,121.4,13.9,122.4,12.9C122.4,13,122.4,13,122.4,12.9z"/>
	</g>
	<g id="PRESS">
		<path class="st1" d="M48.3,32.8c0,0.6-0.2,1.2-0.6,1.6c-0.3,0.3-0.6,0.5-1,0.7c-0.5,0.2-1,0.3-1.5,0.3H44v3.3h-2.1v-8.4h3.3
			c0.8,0,1.6,0.2,2.3,0.8C48,31.5,48.3,32.1,48.3,32.8z M44,33.8h1.3c0.3,0,0.5-0.1,0.7-0.3c0.2-0.2,0.3-0.5,0.3-0.7
			c0-0.3-0.1-0.5-0.3-0.7c-0.2-0.2-0.5-0.3-0.7-0.3H44L44,33.8z"/>
		<path class="st1" d="M63.6,35.4v3.3h-2v-8.4h3.3c0.8,0,1.6,0.2,2.3,0.8c0.5,0.5,0.8,1.1,0.8,1.8c0,0.5-0.2,1-0.4,1.4
			c-0.3,0.5-0.9,0.9-1.4,1l2.1,3.4h-2.4l-1.9-3.3L63.6,35.4z M63.6,31.8v2h1.3c0.3,0,0.5-0.1,0.7-0.3c0.2-0.2,0.3-0.5,0.3-0.7
			c0-0.3-0.1-0.5-0.3-0.7c-0.2-0.2-0.5-0.3-0.7-0.3L63.6,31.8z"/>
		<path class="st1" d="M86.7,30.2v1.6h-3v1.8h2.7v1.6h-2.7v2h3v1.6h-5.1v-8.5H86.7z"/>
		<path class="st1" d="M103.3,31.7c-0.2,0-0.4,0.1-0.6,0.2c-0.2,0.1-0.3,0.4-0.3,0.6c0,0.2,0.1,0.5,0.2,0.6c0.2,0.2,0.4,0.3,0.6,0.4
			c0.2,0.1,0.5,0.2,0.8,0.2c0.3,0.1,0.6,0.2,0.9,0.3c0.3,0.1,0.6,0.2,0.8,0.4c0.3,0.2,0.5,0.4,0.6,0.7c0.2,0.3,0.2,0.7,0.2,1
			c0,0.7-0.3,1.4-0.9,1.8c-0.6,0.5-1.5,0.8-2.3,0.8c-0.8,0-1.6-0.2-2.3-0.7c-0.6-0.5-0.9-1.2-0.9-1.9h2.2c0,0.6,0.4,1,1,1
			c0.3,0,0.5-0.1,0.7-0.2c0.2-0.2,0.3-0.4,0.3-0.6c0-0.2-0.1-0.4-0.2-0.6c-0.2-0.2-0.4-0.3-0.6-0.4c-0.2-0.1-0.5-0.2-0.8-0.3
			c-0.3-0.1-0.6-0.2-0.9-0.3c-0.3-0.1-0.6-0.2-0.8-0.4c-0.3-0.2-0.5-0.4-0.6-0.7c-0.2-0.3-0.2-0.7-0.2-1c0-0.7,0.3-1.4,0.9-1.9
			c0.6-0.5,1.4-0.7,2.2-0.7c0.8,0,1.6,0.2,2.2,0.6c0.6,0.5,0.9,1.2,0.9,2h-2.2c0-0.3-0.1-0.5-0.3-0.7
			C103.7,31.8,103.5,31.7,103.3,31.7z"/>
		<path class="st1" d="M123.1,31.7c-0.2,0-0.4,0.1-0.6,0.2c-0.2,0.1-0.3,0.4-0.3,0.6c0,0.2,0.1,0.5,0.2,0.6c0.2,0.2,0.4,0.3,0.6,0.4
			c0.2,0.1,0.5,0.2,0.8,0.2c0.3,0.1,0.6,0.2,0.9,0.3c0.3,0.1,0.6,0.2,0.8,0.4c0.3,0.2,0.5,0.4,0.6,0.7c0.2,0.3,0.2,0.7,0.2,1
			c0,0.7-0.3,1.4-0.9,1.8c-0.6,0.5-1.5,0.8-2.3,0.8c-0.8,0-1.6-0.2-2.3-0.7c-0.6-0.5-0.9-1.2-0.9-1.9h2.2c0,0.6,0.4,1,1,1
			c0.3,0,0.5-0.1,0.7-0.2c0.2-0.2,0.3-0.4,0.3-0.6c0-0.2-0.1-0.4-0.2-0.6c-0.2-0.2-0.4-0.3-0.6-0.4c-0.2-0.1-0.5-0.2-0.8-0.3
			c-0.3-0.1-0.6-0.2-0.9-0.3c-0.3-0.1-0.6-0.2-0.8-0.4c-0.3-0.2-0.5-0.4-0.6-0.7c-0.2-0.3-0.2-0.7-0.2-1c0-0.7,0.3-1.4,0.9-1.9
			c0.6-0.5,1.4-0.7,2.2-0.7c0.8,0,1.6,0.2,2.2,0.6c0.6,0.5,0.9,1.2,0.9,2H124c0-0.3-0.1-0.5-0.3-0.7
			C123.5,31.8,123.3,31.7,123.1,31.7z"/>
	</g>
	<g id="border">
		<g id="border-2">
			<rect y="33.7" class="st1" width="29" height="1"/>
		</g>
	</g>
</g>
</svg>
