<?xml version="1.0" encoding="UTF-8" standalone="no"?><!DOCTYPE svg PUBLIC "-//W3C//DTD SVG 1.1//EN" "http://www.w3.org/Graphics/SVG/1.1/DTD/svg11.dtd"><svg width="100%" height="100%" viewBox="0 0 22 15" version="1.1" xmlns="http://www.w3.org/2000/svg" xmlns:xlink="http://www.w3.org/1999/xlink" xml:space="preserve" style="fill-rule:evenodd;clip-rule:evenodd;stroke-linejoin:round;stroke-miterlimit:1.41421;"><path id="icon" d="M19.091,0l-17.182,0c-1.054,0 -1.909,0.839 -1.909,1.875l0,11.25c0,1.035 0.855,1.875 1.909,1.875l17.182,0c1.054,0 1.909,-0.84 1.909,-1.875l0,-11.25c0,-1.036 -0.855,-1.875 -1.909,-1.875Zm-17.182,0.938l17.182,0c0.112,0 0.218,0.022 0.318,0.057l-8.262,8.115c-0.173,0.169 -0.403,0.263 -0.647,0.263c-0.244,0 -0.474,-0.094 -0.647,-0.263l-8.262,-8.115c0.1,-0.035 0.206,-0.057 0.318,-0.057Zm-0.954,12.187l0,-11.25c0,-0.056 0.007,-0.11 0.016,-0.163l5.894,5.788l-5.894,5.788c-0.009,-0.053 -0.016,-0.107 -0.016,-0.163Zm18.136,0.937l-17.182,0c-0.112,0 -0.218,-0.022 -0.318,-0.057l5.948,-5.842l1.639,1.61c0.366,0.358 0.844,0.538 1.322,0.538c0.479,0 0.957,-0.18 1.322,-0.538l1.639,-1.61l5.949,5.842c-0.101,0.035 -0.207,0.057 -0.319,0.057Zm0.954,-0.937c0,0.056 -0.007,0.11 -0.016,0.163l-5.893,-5.788l5.893,-5.788c0.009,0.053 0.016,0.107 0.016,0.163l0,11.25Z" style="fill:#fff;"/></svg>