<?xml version="1.0" encoding="UTF-8" standalone="no"?>
<!DOCTYPE svg PUBLIC "-//W3C//DTD SVG 1.1//EN" "http://www.w3.org/Graphics/SVG/1.1/DTD/svg11.dtd">
<svg width="100%" height="100%" viewBox="0 0 97 16" version="1.1" xmlns="http://www.w3.org/2000/svg" xmlns:xlink="http://www.w3.org/1999/xlink" xml:space="preserve" style="fill-rule:evenodd;clip-rule:evenodd;stroke-linejoin:round;stroke-miterlimit:1.41421;">
    <g transform="matrix(1,0,0,1,-1341.16,-1581.56)">
        <g id="star" transform="matrix(1,0,0,1,97.0875,20.4006)">
            <path d="M1252.21,1561.16L1254.07,1566.9L1260.34,1567.07L1255.22,1570.44L1257.23,1576.63L1252.21,1572.75L1247.18,1576.63L1249.2,1570.44L1244.08,1567.07L1250.35,1566.9L1252.21,1561.16" style="fill:rgb(197,217,219);"/>
        </g>
        <g id="star-2" transform="matrix(1,0,0,1,97.0875,20.4006)">
            <path d="M1272.21,1561.16L1274.07,1566.9L1280.34,1567.07L1275.22,1570.44L1277.23,1576.63L1272.21,1572.75L1267.18,1576.63L1269.2,1570.44L1264.08,1567.07L1270.35,1566.9L1272.21,1561.16" style="fill:rgb(197,217,219);"/>
        </g>
        <g id="star-3" transform="matrix(1,0,0,1,97.0875,20.4006)">
            <path d="M1292.21,1561.16L1294.07,1566.9L1300.34,1567.07L1295.22,1570.44L1297.23,1576.63L1292.21,1572.75L1287.18,1576.63L1289.19,1570.44L1284.08,1567.07L1290.35,1566.9L1292.21,1561.16" style="fill:rgb(197,217,219);"/>
        </g>
        <g id="star-4" transform="matrix(1,0,0,1,97.0875,20.4006)">
            <path d="M1312.21,1561.16L1314.07,1566.9L1320.34,1567.07L1315.22,1570.44L1317.23,1576.63L1312.21,1572.75L1307.18,1576.63L1309.2,1570.44L1304.08,1567.07L1310.35,1566.9L1312.21,1561.16" style="fill:rgb(197,217,219);"/>
        </g>
        <g id="star-41" transform="matrix(1,0,0,1,117.088,20.4006)">
            <path d="M1312.21,1561.16L1314.07,1566.9L1320.34,1567.07L1315.22,1570.44L1317.23,1576.63L1312.21,1572.75L1307.18,1576.63L1309.2,1570.44L1304.08,1567.07L1310.35,1566.9L1312.21,1561.16" style="fill:rgb(197,217,219);"/>
        </g>
    </g>
</svg>
