<svg xmlns="http://www.w3.org/2000/svg" width="20" height="20" viewBox="0 0 20 20">
  <defs>
    <style>
      .cls-1 {
        fill: #fff;
        fill-rule: evenodd;
      }
    </style>
  </defs>
  <path class="cls-1" d="M13.635,4.2c-0.551.691-1.727,2.042-1.253,3.029A3.654,3.654,0,0,0,8.04,6.916,5.6,5.6,0,0,1,6.285,3.069C6.321,1.011,8.242.138,10.075,0.007,11-.059,15.384.376,15.384,1.861,15.384,2.608,14.062,3.665,13.635,4.2ZM6.346,10a3.638,3.638,0,0,0,.57,1.96A5.594,5.594,0,0,1,3.07,13.715c-2.059-.037-2.932-1.957-3.062-3.79C-0.058,9,.376,4.615,1.861,4.615c0.748,0,1.8,1.322,2.34,1.75C4.892,6.916,6.243,8.092,7.229,7.618A3.64,3.64,0,0,0,6.346,10Zm7.369,6.93c-0.036,2.059-1.957,2.931-3.79,3.062-0.923.066-5.309-.369-5.309-1.854,0-.748,1.322-1.8,1.749-2.34,0.552-.691,1.727-2.042,1.253-3.028a3.656,3.656,0,0,0,4.342.313A5.6,5.6,0,0,1,13.715,16.93Zm4.424-1.546c-0.748,0-1.8-1.322-2.34-1.749-0.691-.552-2.042-1.727-3.028-1.253a3.655,3.655,0,0,0,.313-4.342A5.594,5.594,0,0,1,16.93,6.285c2.059,0.036,2.932,1.957,3.062,3.79C20.058,11,19.624,15.384,18.139,15.384ZM12.315,10A2.315,2.315,0,1,1,10,7.685,2.315,2.315,0,0,1,12.315,10Zm0,0A2.315,2.315,0,1,1,10,7.685,2.315,2.315,0,0,1,12.315,10Z"/>
</svg>
