<svg xmlns="http://www.w3.org/2000/svg" width="12" height="20" viewBox="0 0 12 20">
  <defs>
    <style>
      .cls-1 {
        fill: #fff;
        fill-rule: evenodd;
      }
    </style>
  </defs>
  <path class="cls-1" d="M11.864,19.918C11.951,19.969,12,20,12,20H6.849a10.824,10.824,0,0,0-1.7,0H0s0.047-.031.135-0.081,0.217-.121.381-0.2a9.78,9.78,0,0,1,1.359-.529c0.281-.088.586-0.169,0.908-0.244s0.662-.137,1.013-0.189,0.715-.092,1.084-0.119l0.175-.012c-0.087-1.372-.173-3.02-0.26-4.447H7.2c-0.087,1.426-.173,3.073-0.26,4.445l0.175,0.011c0.369,0.026.732,0.066,1.084,0.118s0.691,0.115,1.013.189,0.627,0.156.908,0.244a9.738,9.738,0,0,1,1.359.531C11.647,19.8,11.776,19.867,11.864,19.918ZM2.365,3.641L0,6.06V0S0.019,0.048.053,0.13C0.07,0.172.092,0.222,0.118,0.28L0.161,0.375l0.05,0.1C0.281,0.627.371,0.8,0.48,1s0.236,0.411.381,0.64C1.072,1.97,1.321,2.331,1.6,2.7c0.105,0.139.215,0.28,0.329,0.421C2.07,3.295,2.214,3.469,2.365,3.641ZM5.918,0l-2.3,2.352c-0.167-.145-0.336-0.286-0.5-0.421q-0.2-.16-0.393-0.308C2.345,1.335,1.976,1.079,1.635.862,1.406,0.717,1.191.589,1,.481s-0.369-.2-0.517-0.27l-0.1-.05L0.28,0.118C0.222,0.092.171,0.07,0.13,0.053,0.048,0.019,0,0,0,0H5.918ZM12,0V7.017a6.006,6.006,0,0,1-4.674,5.859H4.676a6.011,6.011,0,0,1-4.5-4.4l3.437-3.52q0.229,0.221.463,0.433C4.338,5.625,4.6,5.846,4.857,6.056A16.1,16.1,0,0,0,6.341,7.128C6.569,7.273,6.785,7.4,6.98,7.508s0.37,0.2.518,0.269l0.1,0.05L7.7,7.87c0.058,0.027.109,0.048,0.15,0.065,0.083,0.034.129,0.05,0.129,0.05s-0.016-.046-0.05-0.129C7.908,7.816,7.886,7.765,7.86,7.706L7.817,7.613l-0.05-.1C7.7,7.359,7.607,7.185,7.5,6.989s-0.235-.411-0.38-0.64a16.027,16.027,0,0,0-1.07-1.486C5.839,4.6,5.617,4.343,5.384,4.086Q5.166,3.845,4.937,3.607L8.457,0H12ZM6.849,20h-1.7A10.824,10.824,0,0,1,6.849,20Z"/>
</svg>
