<svg xmlns="http://www.w3.org/2000/svg" width="20" height="25" viewBox="0 0 20 25">
  <defs>
    <style>
      .cls-1 {
        fill: #fff;
        fill-rule: evenodd;
      }
    </style>
  </defs>
  <path class="cls-1" d="M19.891,10.345H18.709a2.924,2.924,0,0,0-.179-0.408,1.713,1.713,0,0,0-.349-0.46c0.022-.082.043-0.165,0.064-0.248,0.025-.1.048-0.205,0.069-0.307a6.666,6.666,0,0,0-1.542-6.216A10.043,10.043,0,0,0,9.482,0a10.044,10.044,0,0,0-7.289,2.7A6.666,6.666,0,0,0,.651,8.921c0.021,0.1.044,0.2,0.069,0.307C0.74,9.312.761,9.395,0.784,9.477a1.7,1.7,0,0,0-.349.461h0A4.824,4.824,0,0,0,.019,12.5a5.645,5.645,0,0,0,.429,1.812s0,0,0,0a1.614,1.614,0,0,0,1.339,1.209,0.761,0.761,0,0,0,.263-0.069,8.711,8.711,0,0,0,5.364,5.87,6.671,6.671,0,0,0,2.069.329c3.4,0,6.3-2.577,7.433-6.2a0.756,0.756,0,0,0,.263.069,1.614,1.614,0,0,0,1.339-1.21,11.5,11.5,0,0,1-2.431,5.366,9.288,9.288,0,0,1-2.93,2.374,8.21,8.21,0,0,1-1.791.667V22.264H7.413V25h3.952V24.041A9.448,9.448,0,0,0,13.74,23.2a10.573,10.573,0,0,0,3.336-2.7A13.157,13.157,0,0,0,20,12.085,14.161,14.161,0,0,0,19.891,10.345ZM16.332,13.53q-0.066.484-.177,0.948c-0.841,3.565-3.514,6.178-6.673,6.178a5.729,5.729,0,0,1-2.069-.388,8.014,8.014,0,0,1-4.6-5.791Q2.7,14.014,2.632,13.53a10.541,10.541,0,0,1-.1-1.445,5.879,5.879,0,0,1,.159-1.516c0.67-2.46,3.381-.224,6.7-0.224,3.208,0,5.982-2.094,6.8,0,0.029,0.074.055,0.153,0.079,0.237a5.643,5.643,0,0,1,.165,1.5A10.541,10.541,0,0,1,16.332,13.53Zm-4.325,4.463c0,0.724-1.171,1.311-2.614,1.311a4.064,4.064,0,0,1-1.98-.455,1.067,1.067,0,0,1-.635-0.856,0.36,0.36,0,0,1,.086-0.26A0.709,0.709,0,0,1,7.413,17.6c0.479,0.017,1.189.17,1.98,0.17,1.291,0,2.363-.4,2.576.028A0.432,0.432,0,0,1,12.008,17.993Zm-3.56-5.166a1.176,1.176,0,0,1-1.034.8,5.242,5.242,0,0,1-1.392.176c-1.34,0-2.426-.437-2.426-0.976s1.087-.977,2.426-0.977a5.226,5.226,0,0,1,1.392.176A1.175,1.175,0,0,1,8.447,12.828Zm6.922,0c0,0.539-1.087.976-2.427,0.976s-2.426-.437-2.426-0.976,1.086-.977,2.426-0.977S15.37,12.288,15.37,12.828Z"/>
</svg>
