<svg xmlns="http://www.w3.org/2000/svg" width="20" height="19" viewBox="0 0 20 19">
  <defs>
    <style>
      .cls-1 {
        fill: #fff;
        fill-rule: evenodd;
      }
    </style>
  </defs>
  <path class="cls-1" d="M6.263,7.942V7.123L0,10.548v1.864l6.6-1.18Zm7.474-.819V7.942L13.4,11.232l6.6,1.18V10.548Zm-1.088.762h0V5.657C12.649,3.9,11.463,0,10,0S7.35,3.9,7.35,5.657V7.885l0.756,7.3L5.116,17.844V19l3.593-1.339v0H9.282L9.617,19h0.767l0.335-1.343H11.29v0L14.884,19V17.844l-2.991-2.661ZM8.817,3.508a2.907,2.907,0,0,1,2.366,0,11.04,11.04,0,0,1,.292,1.261,4.577,4.577,0,0,0-2.95,0A11.029,11.029,0,0,1,8.817,3.508Z"/>
</svg>
