<svg xmlns="http://www.w3.org/2000/svg" width="20" height="18" viewBox="0 0 20 18">
  <defs>
    <style>
      .cls-1 {
        fill: #fff;
        fill-rule: evenodd;
      }
    </style>
  </defs>
  <path class="cls-1" d="M15.757,8.506v2.225h0V8.507h0Zm0.471-6.891V7.108A2.252,2.252,0,0,0,16,7.219a2.153,2.153,0,0,0-1.036-.277V1.616a0.324,0.324,0,0,0-.316-0.323H1.578a0.324,0.324,0,0,0-.316.323V9.581a0.324,0.324,0,0,0,.316.323h9.287v0.516a2.15,2.15,0,0,0-1.955.252q-0.045.031-.088,0.063a2.248,2.248,0,0,0-.454.463,2.3,2.3,0,0,0,0,2.7l0.3,0.415H2.424V12.877H6.088V11.2H1.578A1.6,1.6,0,0,1,0,9.581V1.616A1.6,1.6,0,0,1,1.578,0H14.65A1.6,1.6,0,0,1,16.228,1.616ZM19.059,8.9a0.929,0.929,0,0,0-.7.319v1.936H17.878V8.51a1.042,1.042,0,0,0-1.637,0v2.643H15.759V8.507h0l-0.018-.022L15.7,8.441c-0.025-.026-0.05-0.05-0.077-0.074L15.6,8.351l-0.008-.006-0.046-.035L15.539,8.3l-0.027-.018-0.03-.019-0.02-.012L15.41,8.225l-0.026-.012a1.039,1.039,0,0,0-.105-0.043l-0.026-.009h0l-0.022-.006C15.2,8.146,15.17,8.139,15.14,8.134l-0.026-.005-0.022,0-0.023,0-0.028,0h-0.1a1.046,1.046,0,0,0-.817.4v2.648H13.644V4.8a1.042,1.042,0,0,0-1.634,0v8.519l-0.318-.438L10.984,11.9a1.041,1.041,0,0,0-1.48-.225,1,1,0,0,0-.1.087l-0.03.03-0.028.031-0.021.024L9.31,11.87l-0.016.022-0.016.022-0.017.025-0.011.017a1.061,1.061,0,0,0-.061.108l-0.01.021c-0.011.023-.021,0.047-0.03,0.071s-0.014.039-.021,0.059l-0.008.026-0.007.027c0,0.018-.009.036-0.013,0.054s0,0.013,0,.02-0.006.033-.008,0.05l0,0.025,0,0.025c0,0.009,0,.018,0,0.027s0,0.021,0,.032,0,0.01,0,.015a1.068,1.068,0,0,0,0,.116c0,0.014,0,.027,0,0.041s0,0.027.005,0.041,0,0.028.007,0.041S9.1,12.783,9.1,12.8l0.01,0.04c0,0.013.007,0.027,0.012,0.04s0.009,0.028.014,0.042,0.008,0.023.013,0.034,0.006,0.015.009,0.022L9.172,13l0.005,0.012,0.016,0.033,0.02,0.039c0.013,0.023.027,0.046,0.042,0.069l0.011,0.016L9.285,13.2l0.807,1.114L12.761,18h5.444L20,16.159V9.866A0.952,0.952,0,0,0,19.059,8.9Z"/>
</svg>
