<svg xmlns="http://www.w3.org/2000/svg" width="18" height="19" viewBox="0 0 18 19">
  <defs>
    <style>
      .cls-1 {
        fill: #fff;
        fill-rule: evenodd;
      }
    </style>
  </defs>
  <path class="cls-1" d="M9.52,19l1.246-.267-1.178-9H3.78c-0.013.338,0.009,1.238,0,1.522a0.911,0.911,0,0,1-.495.837c-1.253.6-2.336,1.158-2.347,1.164l0.594,1.231c0.011-.006,1.074-0.556,2.308-1.145A2.246,2.246,0,0,0,5.1,11.313l3.414,0.02ZM17.564,7.7h-0.64A9.054,9.054,0,0,1,15.193,7L14.914,4.52A7.228,7.228,0,0,0,7.892,0C3.859,0,.59,2.786.59,6.226V7.7H0.435a0.451,0.451,0,0,0,0,.9h17.13A0.451,0.451,0,0,0,17.564,7.7ZM6.968,2.82A6.386,6.386,0,0,0,2.4,4.975c-0.386.5-.478,0.209-0.251-0.319A6.021,6.021,0,0,1,6.9,1.338a0.65,0.65,0,0,1,.87.7A0.724,0.724,0,0,1,6.968,2.82Z"/>
</svg>
