<svg xmlns="http://www.w3.org/2000/svg" width="20" height="14" viewBox="0 0 20 14">
  <defs>
    <style>
      .cls-1 {
        fill: #fff;
        fill-rule: evenodd;
      }
    </style>
  </defs>
  <path class="cls-1" d="M6.793,4.975a0.819,0.819,0,0,0-.828-0.809H2.772a0.819,0.819,0,0,0-.828.809V6.6H6.793V4.975ZM15.63,7.611a3.759,3.759,0,0,1-5.475,0H0v2.952S3.675,10.95,3.692,14H16.245S19.584,11.141,20,7.611H15.63Zm0.2,5.379H4.608a4.1,4.1,0,0,0-1.828-2.482c0.766-.4.968-1.474,2.064-1.474,1.343,0,1.343,1.618,2.685,1.618s1.342-1.618,2.685-1.618,1.342,1.618,2.685,1.618,1.342-1.618,2.685-1.618c1.164,0,1.319,1.216,2.215,1.54A13.377,13.377,0,0,1,15.832,12.99Zm-2.94-5.208A2.642,2.642,0,0,0,15.564,5.17C15.564,3.728,12.892,0,12.892,0S10.22,3.728,10.22,5.17A2.642,2.642,0,0,0,12.892,7.782ZM11.781,4.161a0.94,0.94,0,0,1,.526,1.051,0.94,0.94,0,0,1-.526,1.051,0.94,0.94,0,0,1-.526-1.051A0.94,0.94,0,0,1,11.781,4.161Z"/>
</svg>
