<?xml version="1.0" encoding="utf-8"?>
<!-- Generator: Adobe Illustrator 20.1.0, SVG Export Plug-In . SVG Version: 6.00 Build 0)  -->
<svg version="1.1" id="Layer_1" xmlns="http://www.w3.org/2000/svg" xmlns:xlink="http://www.w3.org/1999/xlink" x="0px" y="0px"
	 viewBox="0 0 26 21" style="enable-background:new 0 0 26 21;" xml:space="preserve">
<style type="text/css">
	.st0{enable-background:new    ;}
	.st1{fill:#ADB4B5;}
</style>
<g class="st0">
	<path class="st1" d="M26,2.5c-0.7,1.1-1.6,2-2.6,2.7c0,0.2,0,0.4,0,0.7c0,1.4-0.2,2.8-0.6,4.3s-1,2.8-1.9,4.1s-1.8,2.5-3,3.5
		c-1.1,1-2.5,1.8-4.1,2.4c-1.6,0.6-3.3,0.9-5.2,0.9c-2.9,0-5.5-0.8-8-2.4c0.4,0,0.8,0.1,1.3,0.1c2.4,0,4.5-0.8,6.4-2.3
		c-1.1,0-2.1-0.4-3-1.1c-0.9-0.7-1.5-1.6-1.8-2.6c0.4,0.1,0.7,0.1,1,0.1c0.5,0,0.9-0.1,1.4-0.2c-1.2-0.3-2.2-0.9-3-1.8
		c-0.8-1-1.2-2.1-1.2-3.4V7.4C2.5,7.8,3.2,8,4.1,8.1C3.4,7.6,2.8,6.9,2.4,6.2C2,5.4,1.8,4.6,1.8,3.6c0-1,0.2-1.9,0.7-2.7
		c1.3,1.6,2.9,2.9,4.7,3.9c1.9,1,3.8,1.5,6,1.6C13.1,6.1,13,5.7,13,5.3c0-1.5,0.5-2.7,1.5-3.7c1-1,2.2-1.6,3.7-1.6
		C19.7,0,21,0.6,22,1.7c1.2-0.2,2.3-0.7,3.3-1.3c-0.4,1.3-1.2,2.2-2.3,2.9C24,3.2,25,2.9,26,2.5z"/>
</g>
</svg>
