<svg xmlns="http://www.w3.org/2000/svg" viewBox="0 0 149.54 178.77"><title>font-awesome-logo</title><g id="Layer_2" data-name="Layer 2"><g id="Layer_1-2" data-name="Layer 1"><path d="M149.54,134.78a6.3,6.3,0,0,1-4.89,6.19,121.24,121.24,0,0,1-33.72,5.19c-15,0-27.63-5.89-44.19-5.89-12.27,0-24.94,2-36.91,4.79v33.72h-16V42.3A21.89,21.89,0,1,1,43.7,21.85,22,22,0,0,1,29.83,42.3v6.78A152.45,152.45,0,0,1,64,44.69a131.7,131.7,0,0,1,19.75,1.5c8.58,1.3,17.26,4.29,26,4.29a83.15,83.15,0,0,0,16.46-1.8c4.09-.8,13.47-4,16.86-4a6.43,6.43,0,0,1,6.38,6.38Z"/></g></g></svg>